<svg xmlns="http://www.w3.org/2000/svg" viewBox="0 0 1024 1024" width="16" height="16"><path d="M559.704003 740.028763h59.20528l33.652057 0.139635h1.117081l2.513432 0.139636c1.954891 0.09309 5.352679 0.37236 9.262461 1.070535 5.818129 1.070536 19.642003 4.189053 32.348797 15.452951l5.399224 5.399223c15.685676 17.594022 17.314752 37.701475 17.687111 44.171235 0.232725 5.119953-0.09309 11.962073-0.232725 13.684239a508.271743 508.271743 0 0 1-5.492313 53.154426 263.910328 263.910328 0 0 1-7.447205 33.977873c-1.675621 5.631949-4.049418 12.334433-7.30757 18.990373a80.662539 80.662539 0 0 1-18.711103 25.041227l-1.489441 1.256716c-41.052718 33.977873-89.45955 27.182298-102.585249 27.135753h-54.178417l-45.42795 0.09309h-15.452951a231.282261 231.282261 0 0 1-20.898719-1.070536h-0.511995a109.148099 109.148099 0 0 1-44.729775-15.08059l-0.046546-0.046545c-22.062345-13.404969-32.767702-35.234589-37.65493-46.545031a217.691112 217.691112 0 0 1-12.799884-42.867974c-5.026863-25.273952-8.05229-59.0191-2.606521-83.874147a62.370342 62.370342 0 0 1 40.866537-45.707221c4.933773-1.768711 9.867547-2.792702 10.379542-2.932337l4.654503-0.977445 4.747594-0.325815c1.861801-0.139635 3.723603-0.139635 5.585403-0.139636 49.617003-0.744721 102.119799-0.139635 150.154272-0.139635z m-16.383851 73.72733l-128.929737 0.09309c0.18618 13.218789 3.118517 71.260443 12.846428 80.615995 12.706794 12.241343 26.391033 11.403533 42.542159 11.403532h133.30497a42.449069 42.449069 0 0 0 31.650621-12.334433c9.495186-10.007182 12.055163-65.95431 12.101708-79.638549-34.210598-0.46545-69.212462-0.139635-103.516149-0.139635zM210.150817 0.614394c4.654503-0.46545 14.568595-1.256716 25.692857 0.325816 9.774457 1.396351 24.994682 5.306134 38.865101 16.756211l5.864674 5.399224 5.026864 5.678493c10.705357 13.498059 14.056599 28.066654 15.313315 35.374224 1.675621 9.681367 2.001436 21.410714-0.46545 33.046973l-1.396351 5.352678 0.9309 0.465451c24.668867 12.892974 36.677485 36.212034 42.309434 49.710093 6.702485 16.151126 10.798447 34.443323 12.753339 52.595886 0.65163 5.957764 1.535986 11.868983 2.792701 20.293633 1.117081 7.77302 2.420342 17.314752 3.118518 27.321934 4.561413 65.442314-2.606522 151.131717-73.35497 210.988627l-0.83781 0.698176-0.791266 0.65163c-17.221662 13.498059-36.584395 24.110326-57.250389 31.278261v11.356988a46.545031 46.545031 0 0 0 46.545032 46.545031H333.262425c3.863238-36.118944 10.984627-76.706212 21.969255-115.245498 9.169371-32.116072 21.596895-65.349224 38.492741-94.393323 13.684239-23.551786 32.581522-48.081017 58.320924-65.721585-0.605085-17.082027-2.466887-33.838238-8.610831-47.336297a37.329115 37.329115 0 0 0-13.777329-16.849301c-5.771584-3.723603-16.197671-7.912655-35.234589-7.912655a46.545031 46.545031 0 0 1 0-93.090063c33.140062 0 61.904892 7.447205 85.503223 22.620885a130.326088 130.326088 0 0 1 48.220652 56.691848l1.442896 3.444333 1.442896-3.444333a130.326088 130.326088 0 0 1 48.267198-56.691848c23.551786-15.127135 52.316615-22.620885 85.456678-22.620885a46.545031 46.545031 0 0 1 0 93.090063c-18.990373 0-29.41646 4.189053-35.188044 7.912655a37.329115 37.329115 0 0 0-13.777329 16.849301c-6.004309 13.125699-7.9592 29.32337-8.610831 45.846856 23.039791 15.26677 40.214907 35.979309 52.875155 55.854038 15.034045 23.737966 26.391033 50.315179 35.094954 75.682221 17.268207 50.547904 26.623758 104.26087 31.417896 139.169644l0.930901 6.143944h36.53785a46.545031 46.545031 0 0 0 46.545031-46.545031v-20.665994a200.28327 200.28327 0 0 1-20.386724-11.217353l-0.9309-0.605085-0.977446-0.605086c-97.744566-67.211025-94.067508-185.714675-83.781057-258.138744 0.930901-7.86611 4.049418-31.836801 10.984628-53.712966 3.351242-10.379542 9.774457-28.066654 22.807065-42.728339 5.259589-5.957764 13.079154-13.032609 23.737966-18.292197a93.648603 93.648603 0 0 1 0.651631-47.941383c9.867547-34.024418 40.168362-46.498486 42.495613-47.615567l11.636258-5.678494 13.032609-0.418905 7.447205-0.139635 5.585404 0.046545 8.936646 0.744721 8.703921 1.629076c14.52205 3.258152 28.578649 9.402096 39.423641 15.220225l11.403533 6.609394c67.862656 43.286879 122.878883 119.06219 142.427796 197.350934 19.781638 78.986918-1.023991 155.181135-37.56184 216.527486-6.981755 11.775893-16.988936 25.320497-29.649185 37.236025-12.008618 11.217353-31.045536 25.273952-56.226398 29.975-8.843556 1.629076-17.780202 2.420342-26.716848 2.606522a139.635094 139.635094 0 0 1-139.588549 139.402369h-34.908774l-0.325815 2.932337a91.879892 91.879892 0 0 1-13.591149 35.606949 86.573758 86.573758 0 0 1-31.976437 30.021545l-1.070536 0.605086-2.094526 1.070535a79.545459 79.545459 0 0 1-34.955319 8.843556c-16.988936 0.46545-34.955319 0.232725-49.570458 0.232725l-91.786802-0.046545-57.808929 0.09309c-7.67993 0-19.828183 0.18618-29.69573-0.55854a94.858774 94.858774 0 0 1-47.522477-15.685675 86.294488 86.294488 0 0 1-34.024418-50.128999 124.647594 124.647594 0 0 1-2.606522-12.939519h-56.784938a139.635094 139.635094 0 0 1-139.635094-139.635094v-1.722166a110.125544 110.125544 0 0 1-32.441887-10.519178c-29.32337-15.313315-48.406833-40.866538-60.461996-61.067081a342.571431 342.571431 0 0 1-27.228844-59.810365c-25.506677-71.865528-18.711103-147.315024 14.289325-213.641694 26.530668-53.387151 72.377524-110.265179 130.791538-142.753612 13.451514-7.49375 28.671739-12.474068 36.212035-14.940955l6.516304-2.187616 6.84212-0.651631z m316.552758 335.263862c-1.675621 0.232725-3.304697 0.698175-4.933773 1.070535a46.172671 46.172671 0 0 1-13.963509 5.213044c-11.170808 5.957764-20.247089 15.220225-28.206289 25.879037-40.819993 54.550777-67.955746 162.44216-71.027718 230.397906-0.511995 12.241343-1.023991 24.901592 0.83781 37.049845a22.9467 22.9467 0 0 0 4.095963 10.426087c9.076281 4.189053 36.53785 2.746157 47.941382 2.746157h141.031446c11.450078 0 23.505241 0.791266 34.908773-0.18618 2.746157-0.232725 7.261025-0.65163 9.402096-2.559977 6.190489-5.678494 6.190489-27.275388 6.143945-35.700039-0.37236-70.329542-33.326242-206.613394-83.687967-256.230398a72.051709 72.051709 0 0 0-14.9875-11.356988 46.126126 46.126126 0 0 1-18.152562-6.423214 43.93851 43.93851 0 0 0-9.402097-0.325815z m307.755748-261.815802c-4.654503 7.819565 4.189053 23.179426 7.167935 31.371351 11.868983 32.581522 21.64344 65.349224 25.041227 100.071818 1.582531 16.058036 1.396351 55.388587-19.036918 59.57764-27.508114 5.631949-29.78882-39.842547-34.769138-57.017664-2.792702-9.076281-10.426087-36.398215-18.385288-38.260015-7.633385 2.746157-12.799884 33.419333-14.242779 41.099262-11.915528 62.323797-14.89441 153.133153 41.704348 196.606213 9.634822 7.49375 20.107454 13.963509 31.697166 17.687112 31.650621 10.239907 68.095381 18.199107 90.530086-13.498059 30.673176-43.333424 47.522477-96.348215 41.425078-149.409551-7.912655-63.440878-48.360288-123.995964-97.511841-163.46615-11.822438-9.448641-38.632376-26.716848-53.619876-24.761957z m-613.416969 0.139635c-41.006173 8.14538-84.711957 56.179853-106.867392 89.36646-30.766266 46.079581-47.941382 101.235443-36.44476 156.717121 6.888665 33.233152 26.111763 85.642858 54.923138 106.588122 13.963509 10.053727 37.236025 7.540295 53.573331 4.375233A118.829465 118.829465 0 0 0 242.965064 404.485632c32.022982-29.60264 43.519604-69.864092 45.288316-112.406251 0.930901-22.48125-6.423214-106.541577-19.548914-121.156717a3.490877 3.490877 0 0 0-2.094526-1.256716c-8.517741 2.839247-16.197671 33.000427-18.757648 41.425078-4.654503 15.54604-5.911219 47.336297-24.203416 53.247516-26.344488 8.517741-30.25427-30.952446-29.50955-47.941382 1.675621-43.426514 15.26677-86.247943 31.557531-126.27667 1.768711-4.375233 4.328688-12.287888 0.09309-15.825311-2.187616-0.46545-2.420342-0.37236-4.654503-0.09309z" fill="currentColor"/></svg>
